# Blender v2.93.4 OBJ File: 'track.blend'
# www.blender.org
mtllib track.mtl
o Track
v -20.000000 0.000000 -40.000000
v 20.000000 0.000000 -0.000000
v 19.231411 0.000000 -7.803617
v 16.955177 0.000000 -15.307344
v 13.258789 0.000000 -22.222803
v 8.284275 0.000000 -28.284266
v 2.222813 0.000000 -33.258785
v -4.692663 0.000000 -36.955181
v -12.196390 0.000000 -39.231411
v -20.000000 0.000000 -20.000000
v 1.666667 0.000000 -0.000000
v 18.333334 0.000000 40.000000
v 1.666667 0.000000 40.000000
v 20.000000 0.000000 35.000000
v 20.000000 0.000000 30.000000
v 20.000000 0.000000 25.000000
v 20.000000 0.000000 20.000000
v 20.000000 0.000000 15.000000
v 20.000000 0.000000 10.000000
v 20.000000 0.000000 5.000000
v 0.000000 0.000000 5.000000
v 0.000000 0.000000 10.000000
v 0.000000 0.000000 15.000000
v 0.000000 0.000000 20.000000
v 0.000000 0.000000 25.000000
v -67.906380 0.000000 -39.231411
v 0.000000 0.000000 30.000000
v 0.000000 0.000000 35.000000
v 20.000000 0.000000 40.000000
v 0.000000 0.000000 40.000000
v 0.000000 0.000000 -0.000000
v 20.000000 0.000000 -0.000000
v 0.000000 0.000000 -0.000000
v -0.384295 0.000000 -3.901808
v -1.522411 0.000000 -7.653672
v -3.370605 0.000000 -11.111402
v -5.857862 0.000000 -14.142133
v -8.888594 0.000000 -16.629393
v -12.346332 0.000000 -18.477591
v -16.098196 0.000000 -19.615705
v 18.333334 0.000000 -0.000000
v 1.666667 0.000000 -0.000000
v 17.596769 0.000000 -7.478466
v 1.250348 0.000000 -4.226959
v 15.415379 0.000000 -14.669538
v 0.017387 0.000000 -8.291478
v 11.873007 0.000000 -21.296854
v -1.984823 0.000000 -12.037352
v 7.105763 0.000000 -27.105755
v -4.679351 0.000000 -15.320643
v 1.296862 0.000000 -31.873003
v -7.962643 0.000000 -18.015175
v -5.330469 0.000000 -35.415382
v -11.708526 0.000000 -20.017389
v -12.521541 0.000000 -37.596767
v -15.773046 0.000000 -21.250347
v -20.000000 0.000000 -38.333336
v -20.000000 0.000000 -21.666666
v 19.231411 0.217956 -7.803617
v 20.000000 0.217956 -0.000000
v 16.955177 0.217956 -15.307344
v 13.258789 0.217956 -22.222803
v 8.284275 0.217956 -28.284266
v 2.222813 0.217956 -33.258785
v -4.692663 0.217956 -36.955181
v -12.196390 0.217956 -39.231411
v -20.000000 0.217956 -40.000000
v 1.666667 0.405396 -0.000000
v 0.000000 0.217956 -0.000000
v 1.250348 0.405396 -4.226959
v -0.384295 0.217956 -3.901808
v 0.017387 0.405396 -8.291478
v -1.522411 0.217956 -7.653672
v -1.984823 0.405396 -12.037352
v -3.370605 0.217956 -11.111402
v -4.679351 0.405396 -15.320643
v -5.857862 0.217956 -14.142133
v -7.962643 0.405396 -18.015175
v -8.888594 0.217956 -16.629393
v -11.708526 0.405396 -20.017389
v -12.346332 0.217956 -18.477591
v -15.773046 0.405396 -21.250347
v -16.098196 0.217956 -19.615705
v -20.000000 0.405396 -21.666666
v -20.000000 0.217956 -20.000000
v 18.333334 0.405396 -0.000000
v 17.596769 0.405396 -7.478466
v 15.415379 0.405396 -14.669538
v 11.873007 0.405396 -21.296854
v 7.105763 0.405396 -27.105755
v 1.296862 0.405396 -31.873003
v -5.330469 0.405396 -35.415382
v -12.521541 0.405396 -37.596767
v -20.000000 0.405396 -38.333336
v 18.333334 0.000000 -0.000000
v 18.333332 0.000000 10.000000
v 1.666667 0.000000 10.000000
v 18.333332 0.000000 20.000000
v 1.666667 0.000000 20.000000
v 18.333332 0.000000 30.000000
v 1.666667 0.000000 30.000000
v 18.333332 0.000000 5.000000
v 1.666667 0.000000 5.000000
v 18.333332 0.000000 15.000000
v 1.666667 0.000000 15.000000
v 18.333332 0.000000 25.000000
v 1.666667 0.000000 25.000000
v 18.333332 0.000000 35.000000
v 1.666667 0.000000 35.000000
v 20.000000 0.290711 30.000000
v 20.000000 0.290711 35.000000
v 20.000000 0.290711 20.000000
v 20.000000 0.290711 25.000000
v 20.000000 0.290711 10.000000
v 20.000000 0.290711 15.000000
v 20.000000 0.290711 -0.000000
v 20.000000 0.290711 5.000000
v 0.000000 0.290711 10.000000
v 0.000000 0.290711 5.000000
v 0.000000 0.290711 15.000000
v 0.000000 0.290711 20.000000
v 0.000000 0.290711 25.000000
v 0.000000 0.290711 30.000000
v 0.000000 0.290711 35.000000
v 0.000000 0.290711 40.000000
v 0.000000 0.290711 -0.000000
v 20.000000 0.290711 40.000000
v 18.333334 0.290711 40.000000
v 18.333334 0.290711 -0.000000
v 1.666667 0.290711 10.000000
v 1.666667 0.290711 20.000000
v 1.666667 0.290711 30.000000
v 1.666667 0.290711 40.000000
v 1.666667 0.290711 5.000000
v 1.666667 0.290711 15.000000
v 1.666667 0.290711 25.000000
v 1.666667 0.290711 35.000000
v 1.666667 0.290711 -0.000000
v 18.333332 0.290711 10.000000
v 18.333332 0.290711 20.000000
v 18.333332 0.290711 30.000000
v 18.333332 0.290711 5.000000
v 18.333332 0.290711 15.000000
v 18.333332 0.290711 25.000000
v 18.333332 0.290711 35.000000
vt 0.000000 0.000000
vt 0.000000 0.000000
vt 0.000000 0.000000
vt 0.000000 0.000000
vt 0.000000 0.000000
vt 0.000000 0.000000
vt 0.000000 0.000000
vt 0.000000 0.000000
vt 0.000000 0.000000
vt 0.000000 0.000000
vt 0.000000 0.000000
vt 0.000000 0.000000
vt 0.000000 0.000000
vt 0.000000 0.000000
vt 0.000000 0.000000
vt 0.000000 0.000000
vt 0.000000 0.000000
vt 0.000000 0.000000
vt 0.000000 0.000000
vt 0.000000 0.000000
vt 0.000000 0.000000
vt 0.000000 0.000000
vt 0.000000 0.000000
vt 0.000000 0.000000
vt 0.000000 0.000000
vt 0.000000 0.000000
vt 0.000000 0.000000
vt 0.000000 0.000000
vt 0.000000 0.000000
vt 0.000000 0.000000
vt 0.000000 0.000000
vt 0.000000 0.000000
vt 0.000000 0.000000
vt 0.000000 0.000000
vt 0.000000 0.000000
vt 0.000000 0.000000
vt 0.000000 0.000000
vt 0.000000 0.000000
vt 0.000000 0.000000
vt 0.000000 0.000000
vt 0.000000 0.000000
vt 0.000000 0.000000
vt 0.000000 0.000000
vt 0.000000 0.000000
vt 0.000000 0.000000
vt 0.000000 0.000000
vt 0.000000 0.000000
vt 0.000000 0.000000
vt 0.000000 0.000000
vt 0.000000 0.000000
vt 0.000000 0.000000
vt 0.000000 0.000000
vt 0.000000 0.000000
vt 0.000000 0.000000
vt 0.000000 0.000000
vt 0.000000 0.000000
vt 0.000000 0.000000
vt 0.000000 0.000000
vt 0.000000 0.000000
vt 0.000000 0.000000
vt 0.000000 0.000000
vt 0.000000 0.000000
vt 0.000000 0.000000
vt 0.000000 0.000000
vt 0.000000 0.000000
vt 0.000000 0.000000
vt 0.000000 0.000000
vt 0.000000 0.000000
vt 0.000000 0.000000
vt 0.000000 0.000000
vt 0.000000 0.000000
vt 0.000000 0.000000
vt 0.000000 0.000000
vt 0.000000 0.000000
vt 0.000000 0.000000
vt 0.000000 0.000000
vt 0.000000 0.000000
vt 0.000000 0.000000
vt 0.000000 0.000000
vt 0.000000 0.000000
vt 0.000000 0.000000
vt 0.000000 0.000000
vt 0.000000 0.000000
vt 0.000000 0.000000
vt 0.000000 0.000000
vt 0.000000 0.000000
vt 0.000000 0.000000
vt 0.000000 0.000000
vt 0.000000 0.000000
vt 0.000000 0.000000
vt 0.000000 0.000000
vt 0.000000 0.000000
vt 0.000000 0.000000
vt 0.000000 0.000000
vt 0.000000 0.000000
vt 0.000000 0.000000
vt 0.000000 0.000000
vt 0.000000 0.000000
vt 0.000000 0.000000
vt 0.000000 0.000000
vt 0.000000 0.000000
vt 0.000000 0.000000
vt 0.000000 0.000000
vt 0.000000 0.000000
vt 0.000000 0.000000
vt 0.000000 0.000000
vt 0.000000 0.000000
vt 0.000000 0.000000
vt 0.000000 0.000000
vt 0.000000 0.000000
vt 0.000000 0.000000
vt 0.000000 0.000000
vt 0.000000 0.000000
vt 0.000000 0.000000
vt 0.000000 0.000000
vt 0.000000 0.000000
vt 0.000000 0.000000
vt 0.000000 0.000000
vt 0.000000 0.000000
vt 0.000000 0.000000
vt 0.000000 0.000000
vt 0.000000 0.000000
vt 0.000000 0.000000
vt 0.000000 0.000000
vt 0.000000 0.000000
vt 0.000000 0.000000
vt 0.000000 0.000000
vt 0.000000 0.000000
vt 0.000000 0.000000
vt 0.000000 0.000000
vt 0.000000 0.000000
vt 0.000000 0.000000
vt 0.000000 0.000000
vt 0.000000 0.000000
vt 0.000000 0.000000
vt 0.000000 0.000000
vt 0.000000 0.000000
vt 0.000000 0.000000
vt 0.000000 0.000000
vt 0.000000 0.000000
vt 0.000000 0.000000
vt 0.000000 0.000000
vt 0.000000 0.000000
vt 0.000000 0.000000
vn -0.4714 0.0000 0.8819
vn 0.9952 0.0000 -0.0980
vn -0.2903 0.0000 0.9569
vn 1.0000 0.0000 0.0000
vn -0.6344 0.0000 0.7730
vn 0.2903 0.0000 -0.9569
vn -0.7730 0.0000 0.6344
vn -1.0000 0.0000 0.0000
vn 0.0000 0.0000 -1.0000
vn 0.0000 -1.0000 0.0000
vn -0.8819 0.0000 0.4714
vn 0.4714 0.0000 -0.8819
vn -0.9569 0.0000 0.2903
vn -0.9952 0.0000 0.0980
vn 0.6344 0.0000 -0.7730
vn 0.0110 -0.9937 -0.1118
vn 0.0326 -0.9937 -0.1075
vn 0.0529 -0.9937 -0.0990
vn 0.0712 -0.9937 -0.0868
vn 0.0868 -0.9937 -0.0712
vn 0.0990 -0.9937 -0.0529
vn 0.1075 -0.9937 -0.0326
vn 0.1118 -0.9937 -0.0110
vn -0.1118 -0.9937 0.0110
vn -0.1075 -0.9937 0.0326
vn -0.0990 -0.9937 0.0529
vn -0.0868 -0.9937 0.0712
vn -0.0712 -0.9937 0.0868
vn -0.0529 -0.9937 0.0990
vn -0.0326 -0.9937 0.1075
vn -0.0110 -0.9937 0.1118
vn 0.0980 0.0000 -0.9952
vn 0.9569 0.0000 -0.2903
vn -0.0980 0.0000 0.9952
vn 0.8819 0.0000 -0.4714
vn 0.7730 0.0000 -0.6344
vn 0.0000 1.0000 0.0000
vn 0.0000 0.0000 1.0000
usemtl None
s off
f 7/1/1 65/2/1 8/3/1
f 43/4/2 86/5/2 41/6/2
f 54/7/3 82/8/3 56/9/3
f 58/10/4 85/11/4 10/12/4
f 6/13/5 64/14/5 7/1/5
f 55/15/6 92/16/6 53/17/6
f 5/18/7 63/19/7 6/13/7
f 57/20/4 67/21/4 94/22/4
f 19/23/8 117/24/8 20/25/8
f 96/26/4 143/27/4 104/28/4
f 28/29/4 125/30/4 30/31/4
f 105/32/8 130/33/8 97/34/8
f 27/35/4 124/36/4 28/29/4
f 102/37/4 139/38/4 96/26/4
f 30/31/9 133/39/9 13/40/9
f 25/41/4 123/42/4 27/35/4
f 97/34/8 134/43/8 103/44/8
f 52/45/1 80/46/1 54/7/1
f 42/47/10 43/4/10 41/6/10
f 4/48/11 62/49/11 5/18/11
f 44/50/10 45/51/10 43/4/10
f 53/17/12 91/52/12 51/53/12
f 46/54/10 47/55/10 45/51/10
f 3/56/13 61/57/13 4/48/13
f 48/58/10 49/59/10 47/55/10
f 50/60/5 78/61/5 52/45/5
f 49/59/10 52/45/10 51/53/10
f 41/6/9 60/62/9 2/63/9
f 52/45/10 53/17/10 51/53/10
f 2/63/14 59/64/14 3/56/14
f 54/7/10 55/15/10 53/17/10
f 51/53/15 90/65/15 49/59/15
f 56/9/10 57/20/10 55/15/10
f 82/8/16 85/11/16 84/66/16
f 80/46/17 83/67/17 82/8/17
f 79/68/18 80/46/18 78/61/18
f 76/69/19 79/68/19 78/61/19
f 75/70/20 76/69/20 74/71/20
f 72/72/21 75/70/21 74/71/21
f 71/73/22 72/72/22 70/74/22
f 69/75/23 70/74/23 68/76/23
f 86/5/24 59/64/24 60/62/24
f 87/77/25 61/57/25 59/64/25
f 61/57/26 89/78/26 62/49/26
f 89/78/27 63/19/27 62/49/27
f 63/19/28 91/52/28 64/14/28
f 91/52/29 65/2/29 64/14/29
f 92/16/30 66/79/30 65/2/30
f 66/79/31 94/22/31 67/21/31
f 34/80/2 69/75/2 33/81/2
f 57/20/32 93/82/32 55/15/32
f 8/3/3 66/79/3 9/83/3
f 42/47/14 70/74/14 44/50/14
f 35/84/33 71/73/33 34/80/33
f 56/9/34 84/66/34 58/10/34
f 45/51/33 87/77/33 43/4/33
f 9/83/34 67/21/34 1/85/34
f 36/86/35 73/87/35 35/84/35
f 44/50/13 72/72/13 46/54/13
f 37/88/36 75/70/36 36/86/36
f 47/55/35 88/89/35 45/51/35
f 38/90/15 77/91/15 37/88/15
f 42/47/9 69/75/9 68/76/9
f 46/54/11 74/71/11 48/58/11
f 39/92/12 79/68/12 38/90/12
f 49/59/36 89/78/36 47/55/36
f 40/93/6 81/94/6 39/92/6
f 48/58/7 76/69/7 50/60/7
f 10/12/32 83/67/32 40/93/32
f 95/95/10 103/44/10 11/96/10
f 24/97/4 122/98/4 25/41/4
f 102/37/10 97/34/10 103/44/10
f 108/99/4 128/100/4 12/101/4
f 96/26/10 105/32/10 97/34/10
f 95/95/4 142/102/4 102/37/4
f 104/28/10 99/103/10 105/32/10
f 23/104/4 121/105/4 24/97/4
f 98/106/10 107/107/10 99/103/10
f 13/40/8 137/108/8 109/109/8
f 106/110/10 101/111/10 107/107/10
f 103/44/8 138/112/8 11/96/8
f 100/113/10 109/109/10 101/111/10
f 22/114/4 120/115/4 23/104/4
f 108/99/10 13/40/10 109/109/10
f 11/96/37 107/107/37 101/111/37
f 111/116/10 128/100/10 145/117/10
f 110/118/10 145/117/10 141/119/10
f 138/112/10 119/120/10 126/121/10
f 113/122/10 141/119/10 144/123/10
f 112/124/10 144/123/10 140/125/10
f 115/126/10 140/125/10 143/27/10
f 114/127/10 143/27/10 139/38/10
f 117/24/10 139/38/10 142/102/10
f 129/128/10 117/24/10 142/102/10
f 134/43/10 118/129/10 119/120/10
f 130/33/10 120/115/10 118/129/10
f 135/130/10 121/105/10 120/115/10
f 131/131/10 122/98/10 121/105/10
f 136/132/10 123/42/10 122/98/10
f 132/133/10 124/36/10 123/42/10
f 137/108/10 125/30/10 124/36/10
f 31/134/4 119/120/4 21/135/4
f 99/103/8 135/130/8 105/32/8
f 17/136/8 115/126/8 18/137/8
f 29/138/8 111/116/8 14/139/8
f 104/28/4 140/125/4 98/106/4
f 15/140/8 113/122/8 16/141/8
f 12/101/9 127/142/9 29/138/9
f 107/107/8 131/131/8 99/103/8
f 14/139/8 110/118/8 15/140/8
f 32/143/38 129/128/38 95/95/38
f 98/106/4 144/123/4 106/110/4
f 16/141/8 112/124/8 17/136/8
f 101/111/8 136/132/8 107/107/8
f 18/137/8 114/127/8 19/23/8
f 106/110/4 141/119/4 100/113/4
f 20/25/8 116/144/8 32/143/8
f 109/109/8 132/133/8 101/111/8
f 11/96/38 126/121/38 31/134/38
f 21/135/4 118/129/4 22/114/4
f 100/113/4 145/117/4 108/99/4
f 7/1/1 64/14/1 65/2/1
f 43/4/2 87/77/2 86/5/2
f 54/7/3 80/46/3 82/8/3
f 58/10/4 84/66/4 85/11/4
f 6/13/5 63/19/5 64/14/5
f 55/15/6 93/82/6 92/16/6
f 5/18/7 62/49/7 63/19/7
f 57/20/4 1/85/4 67/21/4
f 19/23/8 114/127/8 117/24/8
f 96/26/4 139/38/4 143/27/4
f 28/29/4 124/36/4 125/30/4
f 105/32/8 135/130/8 130/33/8
f 27/35/4 123/42/4 124/36/4
f 102/37/4 142/102/4 139/38/4
f 30/31/9 125/30/9 133/39/9
f 25/41/4 122/98/4 123/42/4
f 97/34/8 130/33/8 134/43/8
f 52/45/1 78/61/1 80/46/1
f 42/47/10 44/50/10 43/4/10
f 4/48/11 61/57/11 62/49/11
f 44/50/10 46/54/10 45/51/10
f 53/17/12 92/16/12 91/52/12
f 46/54/10 48/58/10 47/55/10
f 3/56/13 59/64/13 61/57/13
f 48/58/10 50/60/10 49/59/10
f 50/60/5 76/69/5 78/61/5
f 49/59/10 50/60/10 52/45/10
f 41/6/9 86/5/9 60/62/9
f 52/45/10 54/7/10 53/17/10
f 2/63/14 60/62/14 59/64/14
f 54/7/10 56/9/10 55/15/10
f 51/53/15 91/52/15 90/65/15
f 56/9/10 58/10/10 57/20/10
f 82/8/16 83/67/16 85/11/16
f 80/46/17 81/94/17 83/67/17
f 79/68/18 81/94/18 80/46/18
f 76/69/19 77/91/19 79/68/19
f 75/70/20 77/91/20 76/69/20
f 72/72/21 73/87/21 75/70/21
f 71/73/22 73/87/22 72/72/22
f 69/75/23 71/73/23 70/74/23
f 86/5/24 87/77/24 59/64/24
f 87/77/25 88/89/25 61/57/25
f 61/57/26 88/89/26 89/78/26
f 89/78/27 90/65/27 63/19/27
f 63/19/28 90/65/28 91/52/28
f 91/52/29 92/16/29 65/2/29
f 92/16/30 93/82/30 66/79/30
f 66/79/31 93/82/31 94/22/31
f 34/80/2 71/73/2 69/75/2
f 57/20/32 94/22/32 93/82/32
f 8/3/3 65/2/3 66/79/3
f 42/47/14 68/76/14 70/74/14
f 35/84/33 73/87/33 71/73/33
f 56/9/34 82/8/34 84/66/34
f 45/51/33 88/89/33 87/77/33
f 9/83/34 66/79/34 67/21/34
f 36/86/35 75/70/35 73/87/35
f 44/50/13 70/74/13 72/72/13
f 37/88/36 77/91/36 75/70/36
f 47/55/35 89/78/35 88/89/35
f 38/90/15 79/68/15 77/91/15
f 42/47/9 33/81/9 69/75/9
f 46/54/11 72/72/11 74/71/11
f 39/92/12 81/94/12 79/68/12
f 49/59/36 90/65/36 89/78/36
f 40/93/6 83/67/6 81/94/6
f 48/58/7 74/71/7 76/69/7
f 10/12/32 85/11/32 83/67/32
f 95/95/10 102/37/10 103/44/10
f 24/97/4 121/105/4 122/98/4
f 102/37/10 96/26/10 97/34/10
f 108/99/4 145/117/4 128/100/4
f 96/26/10 104/28/10 105/32/10
f 95/95/4 129/128/4 142/102/4
f 104/28/10 98/106/10 99/103/10
f 23/104/4 120/115/4 121/105/4
f 98/106/10 106/110/10 107/107/10
f 13/40/8 133/39/8 137/108/8
f 106/110/10 100/113/10 101/111/10
f 103/44/8 134/43/8 138/112/8
f 100/113/10 108/99/10 109/109/10
f 22/114/4 118/129/4 120/115/4
f 108/99/10 12/101/10 13/40/10
f 109/109/38 13/40/38 101/111/38
f 13/40/38 11/96/38 101/111/38
f 11/96/38 103/44/38 97/34/38
f 105/32/38 99/103/38 11/96/38
f 99/103/38 107/107/38 11/96/38
f 11/96/37 97/34/37 105/32/37
f 111/116/10 127/142/10 128/100/10
f 110/118/10 111/116/10 145/117/10
f 138/112/10 134/43/10 119/120/10
f 113/122/10 110/118/10 141/119/10
f 112/124/10 113/122/10 144/123/10
f 115/126/10 112/124/10 140/125/10
f 114/127/10 115/126/10 143/27/10
f 117/24/10 114/127/10 139/38/10
f 129/128/10 116/144/10 117/24/10
f 134/43/10 130/33/10 118/129/10
f 130/33/10 135/130/10 120/115/10
f 135/130/10 131/131/10 121/105/10
f 131/131/10 136/132/10 122/98/10
f 136/132/10 132/133/10 123/42/10
f 132/133/10 137/108/10 124/36/10
f 137/108/10 133/39/10 125/30/10
f 31/134/4 126/121/4 119/120/4
f 99/103/8 131/131/8 135/130/8
f 17/136/8 112/124/8 115/126/8
f 29/138/8 127/142/8 111/116/8
f 104/28/4 143/27/4 140/125/4
f 15/140/8 110/118/8 113/122/8
f 12/101/9 128/100/9 127/142/9
f 107/107/8 136/132/8 131/131/8
f 14/139/8 111/116/8 110/118/8
f 32/143/38 116/144/38 129/128/38
f 98/106/4 140/125/4 144/123/4
f 16/141/8 113/122/8 112/124/8
f 101/111/8 132/133/8 136/132/8
f 18/137/8 115/126/8 114/127/8
f 106/110/4 144/123/4 141/119/4
f 20/25/8 117/24/8 116/144/8
f 109/109/8 137/108/8 132/133/8
f 11/96/38 138/112/38 126/121/38
f 21/135/4 119/120/4 118/129/4
f 100/113/4 141/119/4 145/117/4
